<svg xmlns="http://www.w3.org/2000/svg" viewBox="0 0 512 512" xmlns:v="https://vecta.io/nano"><path d="M95.75 217v-6.51c.12-4.48.59-8.93 1.12-13.38a156.42 156.42 0 0 1 11-41.69 151.83 151.83 0 0 1 7-14.63c.58-1.08.93-1.12 1.8-.25q19.63 19.66 39.33 39.3c.82.82 1.19.89 2.05 0l49.08-49.15a56 56 0 0 0 8.93-12.3 64 64 0 0 0 6.36-16.79 77.27 77.27 0 0 0 1.41-8.83 67.51 67.51 0 0 0 .19-9.21 63.79 63.79 0 0 0-3.83-19.88c-.94-2.61-.91-2.65 1.8-3.23 4.68-1 9.41-1.69 14.15-2.36 9.26-1.32 18.57-1.25 27.86-1 3.84.08 7.68.58 11.52 1A157.22 157.22 0 0 1 296.26 62a150.48 150.48 0 0 1 22.79 7.79 159.07 159.07 0 0 1 28.22 15.6q6.54 4.57 12.62 9.75a142.36 142.36 0 0 1 12 11.19 153.29 153.29 0 0 1 14.28 17.27c1 1.47 2.05 3 3.13 4.4.4.53.47.91-.08 1.32l-13.28 9.79c-5.39 3.88-10.93 7.52-16.53 11.06s-11.05 6.82-16.69 10q-11.74 6.72-23.83 12.8c-8.18 4.12-16.45 8-24.79 11.81-9.92 4.49-20 8.67-30.1 12.66-6.42 2.54-12.92 4.86-19.4 7.26q-12.9 4.77-26 8.94c-11.44 3.65-22.91 7.16-34.48 10.37l-33.31 8.74-25.31 5.69-14.72 3-11.73 2.15c-1 .19-1.43-.41-1.47-1.22-.14-2.57-.67-5.09-1-7.64a133.81 133.81 0 0 1-.83-17.73z" fill="#dd95e8"/><path d="M223.85 374l18.05-9.12c6.33-3.25 12.53-6.76 18.71-10.3 10.22-5.88 20.14-12.22 29.86-18.89 6.47-4.43 12.79-9.05 19-13.81 4.7-3.6 9.3-7.32 13.89-11.06 3.1-2.53 6-5.25 9.07-7.86 5.21-4.52 10.22-9.25 15.23-14 3.53-3.34 7-6.78 10.39-10.21q4.67-4.68 9.06-9.64l14.08-16.31c6.72-8.2 13.2-16.56 19.24-25.27 4.64-6.71 9.13-13.51 13.16-20.6.19-.33.76-.53.45-1.28-1.56 2.26-3.67 3.84-5.34 5.85a13.76 13.76 0 0 1-.92 1.08l-13.95 13.89c-4.77 4.5-9.26 8.68-14.12 12.78l-9.49 8c-4.88 4.06-9.9 7.94-15 11.7-5.74 4.21-11.58 8.29-17.56 12.16s-11.81 7.4-17.85 10.9c-8 4.64-16.26 8.85-24.62 12.82a330.22 330.22 0 0 1-25.46 10.79q-9 3.38-18.11 6.3-11.74 3.76-23.77 6.59-10.31 2.4-20.77 4.18c-4.85.83-9.7 1.59-14.57 2.2-4.19.53-8.4 1-12.63 1.27l-13.86.87c-8 .47-16 .08-24 .21a16.17 16.17 0 0 1-3.36-.51 23.74 23.74 0 0 0-3.77 0c-5.19-.22-10.33-.92-15.47-1.56a5.4 5.4 0 0 1-2.25-.62c2.4-.54 4.78-1.16 7.2-1.62 6.43-1.2 12.77-2.81 19.12-4.37q12-2.94 23.84-6.36 18.76-5.4 37.2-11.86 14.91-5.19 29.55-11.12c8.55-3.47 17-7.05 25.41-11l11.64-5.51c4.76-2.09 9.3-4.61 13.9-7q12.71-6.66 25-14.14c5.46-3.35 10.91-6.72 16.2-10.33 6.8-4.62 13.48-9.4 19.93-14.51a457.8 457.8 0 0 0 12.77-10.46 260 260 0 0 0 19.24-18.16c4.35-4.54 8.5-9.27 12.51-14.12a253 253 0 0 0 16-21.8 160.33 160.33 0 0 1 7.81 78.81 155.85 155.85 0 0 1-30.26 72.32c-23.32 30.8-53.9 50.83-91.46 59.86a155.5 155.5 0 0 1-68.92.82z" fill="#bc00dd"/><path d="M416.14 125.92a92.08 92.08 0 0 1-6.93 10.29c-4 5.21-8.19 10.32-12.59 15.24l-10.1 11c-2.16 2.25-4.27 4.56-6.51 6.72l-11 10.38c-4.52 4.08-9.07 8.13-13.76 12q-14 11.57-28.71 22.13-16.49 11.76-33.79 22.23Q283 241.8 273 247.36c-10 5.64-20.3 10.87-30.68 15.88-8.32 4-16.77 7.77-25.25 11.44q-16.06 6.94-32.49 13c-9.89 3.65-19.81 7.17-29.84 10.4s-19.92 6.25-30 9.08a1.58 1.58 0 0 1-2.15-.81 159.49 159.49 0 0 1-21.47-47.17c-.35-1.33.52-1.22 1-1.29 2.34-.31 4.65-.75 7-1.2l12.9-2.42q8.7-1.75 17.36-3.69l15.19-3.59c7.92-1.78 15.74-3.93 23.58-6 5.8-1.51 11.55-3.24 17.31-4.89 13.59-3.9 27.09-8.11 40.46-12.73 9.73-3.36 19.43-6.83 29-10.58l21.51-8.62c5.24-2.17 10.4-4.54 15.57-6.87 8-3.61 16-7.32 23.79-11.35 8.52-4.41 17-8.92 25.27-13.75 9.46-5.52 18.77-11.25 27.82-17.42 6.46-4.4 12.8-9 18.94-13.82 5.22-4.11 10.41-8.24 15.35-12.68a15 15 0 0 1 2.97-2.36z" fill="#fff"/><path d="M158.12 32.56a54.53 54.53 0 0 1 37.36 15.38 55.28 55.28 0 0 1 13 18.67c.42 1 .32 1.23-.74 1.51l-21 5.53a20.8 20.8 0 0 1-6.15.45c-1.47-.06-2.24-1.21-3.21-2l-5-4.34a1.83 1.83 0 0 0-2.45-.24l-16.07 9.68a4 4 0 0 0-1.52 5.36A4 4 0 0 0 157.7 84l6.16-3.33c3.83-1.85 5.57-1.36 8.06 2a81 81 0 0 0 8 9.42 4.18 4.18 0 0 0 4.45 1.1l27.22-7.15c1.08-.29 1.09 0 1.12.86a54.76 54.76 0 0 1-6.57 28.26 51.48 51.48 0 0 1-9.32 12.22c-3.28 3.19-6.35 6.59-9.59 9.82l-29.22 29.09c-.87.87-1.26.65-2-.08q-12-12.1-24.15-24.15l-15.37-15.33a52.32 52.32 0 0 1-14.08-26.69 46.45 46.45 0 0 1-1-10.14c0-.93.18-1.29 1.21-1.07q12.39 2.58 24.79 5.09c2.29.46 4.6.75 6.9 1.18.81.15 1.05-.27 1.35-.87a6.87 6.87 0 0 1 8-3.45 4.78 4.78 0 0 1 2.81 2.71A2.48 2.48 0 0 0 148 95a4.92 4.92 0 0 1 3 3.44 1.52 1.52 0 0 0 1 1.17 5.54 5.54 0 0 1 2.8 2.76c.23.46.39.92 1 1.11 2.69.91 3.87 2.91 4 5.66a4.16 4.16 0 0 0 2.72 2.85 2.68 2.68 0 0 0 3.12-1.71c.55-1.34-.15-2.32-.91-3.26l-2.86-3.43c-.28-.33-.66-.74-.19-1.09s.63.13.89.45c1.17 1.46 2.36 2.91 3.61 4.3s2.73 1.56 4 .46a2.85 2.85 0 0 0 .11-4c-1.1-1.39-2.27-2.73-3.42-4.08-.3-.36-.85-.79-.32-1.19s.79.23 1.1.61c1.07 1.35 2.18 2.68 3.31 4a2.77 2.77 0 1 0 4.15-3.57l-3.54-4.34c-.26-.33-.52-.7-.12-1s.61.16.81.41q1.53 1.9 3 3.83a2.85 2.85 0 0 0 4.13.68c1.23-1 1.26-2.75.11-4.15q-4.93-6-9.82-12a3.26 3.26 0 0 0-4.56-.9c-2.24 1.16-4.45 2.41-6.66 3.65a5.85 5.85 0 0 1-7.79-2 5.79 5.79 0 0 1 2-8.1c2.14-1.35 4.3-2.68 6.52-3.89 1-.55.79-1 .21-1.59-1.65-1.67-3.7-1.7-5.76-1.18a22.18 22.18 0 0 0-7.07 3.42c-4 2.78-8.26 3-12.77 2-9.24-1.94-18.23-4.83-27.38-7.09-1-.25-.7-.86-.43-1.44a62.63 62.63 0 0 1 7.29-11.91 55.53 55.53 0 0 1 37.58-20.86c2.14-.35 4.25-.33 7.26-.46z" fill="#bc00dd"/><path d="M152.31 82.57A4 4 0 0 0 157.7 84l6.16-3.33c3.83-1.85 5.57-1.36 8.06 2a81 81 0 0 0 8 9.42 4.18 4.18 0 0 0 4.45 1.1l27.22-7.15c.88-.24 1 0 1.1.47a55.3 55.3 0 0 0-4.07-19.33c.09.48-.17.69-1 .89l-21 5.53a20.8 20.8 0 0 1-6.15.45c-1.47-.06-2.24-1.21-3.21-2l-5-4.34a1.83 1.83 0 0 0-2.45-.24l-16.07 9.68a4 4 0 0 0-1.43 5.42zm-49.65 6.31q12.39 2.58 24.79 5.09l6.9 1.18c.81.15 1.05-.27 1.35-.87a6.87 6.87 0 0 1 8-3.45 4.78 4.78 0 0 1 2.81 2.71A2.48 2.48 0 0 0 148 95a4.92 4.92 0 0 1 3 3.44 1.52 1.52 0 0 0 1 1.17 5.54 5.54 0 0 1 2.8 2.76c.23.46.39.92 1 1.11 2.69.91 3.87 2.91 4 5.66a4.16 4.16 0 0 0 2.72 2.85 2.68 2.68 0 0 0 3.12-1.71c.55-1.34-.15-2.32-.91-3.26l-2.86-3.43c-.28-.33-.66-.74-.19-1.09s.63.13.89.45l3.61 4.3c1.25 1.39 2.73 1.56 4 .46a2.85 2.85 0 0 0 .11-4l-3.42-4.08c-.3-.36-.85-.79-.32-1.19s.79.23 1.1.61l3.31 4a2.77 2.77 0 1 0 4.15-3.57l-3.54-4.34c-.26-.33-.52-.7-.12-1s.61.16.81.41q1.53 1.9 3 3.83a2.85 2.85 0 0 0 4.13.68c1.23-1 1.26-2.75.11-4.15q-4.93-6-9.82-12a3.26 3.26 0 0 0-4.56-.9l-6.66 3.65a5.85 5.85 0 0 1-7.79-2 5.79 5.79 0 0 1 2-8.1l6.52-3.89c1-.55.79-1 .21-1.59-1.65-1.67-3.7-1.7-5.76-1.18a22.18 22.18 0 0 0-7.07 3.42c-4 2.78-8.26 3-12.77 2-9.24-1.94-18.23-4.83-27.38-7.09-.74-.18-.78-.55-.64-1-3.08 6.84-4.37 13.72-4.37 22.06v1.34c.13-.7.38-.93 1.25-.75z" fill="#fff"/><path d="M144.4 97.11c4-.68 5.13.36 4.44 4 3.32-.74 5.07 1.28 3.7 4.46a6.41 6.41 0 0 1 2.21-.43A2.6 2.6 0 0 1 157 109a5.53 5.53 0 0 1-3.8 3.41c-2.1.6-4.14-.65-3.56-3.37A10.48 10.48 0 0 1 150 108c-1.37.48-2.66.8-3.81-.19s-1-2.37-.5-3.81c-1.37.27-2.66.46-3.66-.63s-.74-2.36-.09-3.75a17.48 17.48 0 0 1-1.7.47 2.59 2.59 0 0 1-3-3.17 5.26 5.26 0 0 1 4.53-4.19c1.82-.1 3.42.79 3 3.21-.16.36-.27.75-.37 1.17z" fill="#fefefe"/><path d="M250.93 479.44c-1.21-.62-2.56-.29-3.84-.54-4.67-.9-9.06-2.36-12.35-6-2.05-2.27-2.35-3.59-1-5.66a3.52 3.52 0 0 1 5.65-.53c2.05 2.64 4.79 3.73 7.78 4.45a25.24 25.24 0 0 0 13.36-.13c2.32-.7 4.33-1.93 5.19-4.39 1.06-3-.44-7-3.13-8.92-3.19-2.25-6.83-3.23-10.56-4-5.21-1.13-10.05-3.05-13.6-7.22a16.5 16.5 0 0 1-3.75-8.35c-1.34-8.47 5.84-15.11 12.43-16.29a28.47 28.47 0 0 1 18.89 2.59 12.39 12.39 0 0 1 4.58 4.16 4 4 0 0 1-1 4.88c-1.83 1.33-3.67 1.23-4.86-.25-2-2.5-4.62-3.5-7.5-4-3.19-.6-6.47-.88-9.6.22-3.74 1.31-6 4.56-5.56 7.58a9.64 9.64 0 0 0 5.32 7.1c3.21 1.79 6.81 2.3 10.29 3.25 4.46 1.2 8.63 3 11.86 6.51a15 15 0 0 1 3.77 7.89 14.43 14.43 0 0 1-.54 7.68 13.75 13.75 0 0 1-8.4 8.28 19.72 19.72 0 0 1-6.87 1.44.4.4 0 0 0-.43.29zm232.2 0l-5.07-.88c-4.73-1-9-2.86-11.9-7a3.76 3.76 0 0 1 .7-5.21 3.48 3.48 0 0 1 4.95.48c2.76 3.19 6.41 4.27 10.39 4.79a27 27 0 0 0 10.59-.57c5.65-1.51 7.22-6.52 4.27-11.13-1.53-2.39-4-3.48-6.48-4.52-3.31-1.39-6.9-1.71-10.28-2.86-4.95-1.67-9.08-4.45-11.48-9.1-2.75-5.3-2.93-10.37 1.13-15.77a15.69 15.69 0 0 1 11.18-6.15 28.35 28.35 0 0 1 16.87 2.69 11.56 11.56 0 0 1 4.91 4.37 3.87 3.87 0 0 1-1 5.07 3.76 3.76 0 0 1-5.2-1 10.58 10.58 0 0 0-6-3.25 27.45 27.45 0 0 0-7.83-.58c-3.1.14-7.24 2.27-8.14 5.9a7.2 7.2 0 0 0 1.87 6.76c2.55 3 6.06 4.19 9.75 5a39.25 39.25 0 0 1 10.51 3.49 16.67 16.67 0 0 1 8.86 11.14c.15.62-.3 1.34.33 1.87v3.47c-.68 7.09-5.2 10.62-11.54 12.46-1.72.5-3.52.24-5.25.56zM67.67 450.3v-24c0-2.78 1.33-4.14 4-4.14h33.15a3.66 3.66 0 0 1 3.55 2.1 4.58 4.58 0 0 1-1.14 4.47 2.92 2.92 0 0 1-2.11.67H76.61c-1.21 0-1.52.28-1.5 1.49q.12 7.16 0 14.32c0 1.13.34 1.32 1.38 1.32h24.6c2.39 0 3.85 1.21 3.87 3.18 0 2.74-1.34 4.33-3.88 4.34L79.85 454h-3.76c-.68 0-.91.17-.91.88v15.34c0 1.2.77.86 1.35.86l28.81-.05a3.85 3.85 0 0 1 3.65 5.47 3.76 3.76 0 0 1-3.71 2.09q-16.72.06-33.44 0a3.91 3.91 0 0 1-4.2-4.23l.03-24.06zm359.87 15.21v-8.53a4 4 0 0 0-.7-2.38q-8.79-13.12-17.57-26.24a4.13 4.13 0 0 1-.19-4.75c1-1.7 2.61-1.54 4.15-1.43a3 3 0 0 1 2.1 1.61q7.56 11.29 15.08 22.64c.95 1.43.94 1.44 1.91 0l15.17-22.76a4.12 4.12 0 0 1 4.43-1.48 3.57 3.57 0 0 1 2.24 3.44 4.44 4.44 0 0 1-.82 2.78l-17.66 26.5a3.55 3.55 0 0 0-.64 2.12v17.65a4 4 0 0 1-3.52 3.9 3.68 3.68 0 0 1-4-3.8l.02-9.27zm-244.35-15.2q0-12.07 0-24.15a3.76 3.76 0 0 1 2.13-3.72 3.7 3.7 0 0 1 4.13.54 3.76 3.76 0 0 1 1.27 3.1q0 21.54 0 43.08c0 1.89 0 1.89 1.91 1.89h25c2.53 0 4.92 1.46 4.05 5a3.38 3.38 0 0 1-3.39 2.49q-15.69 0-31.39 0c-2.32 0-3.72-1.63-3.72-4.1q0-12.06.01-24.13zm-127.6-7.09a27.5 27.5 0 0 0-10.21-15.12 27.54 27.54 0 0 0-16.74-5.93c-6-.08-12 .07-18-.07A4.76 4.76 0 0 0 6 424.46V476a4.4 4.4 0 0 0 4.39 2.63c4.77-.09 9.55 0 14.33 0a47 47 0 0 0 7.84-.53 29.56 29.56 0 0 0 15.7-8.1 27.39 27.39 0 0 0 5.92-8.71 26.43 26.43 0 0 0 1.41-18.07zm-9.69 17.6c-3.66 5.75-9 8.92-15.68 10-2.88.46-5.75 0-8.07.26-2.76 0-5-.05-7.2 0-1.06 0-1.46-.17-1.45-1.37q.08-19.53 0-39c0-1 .15-1.32 1.22-1.31 4.15.07 8.3-.12 12.44.06 9.21.4 16.22 4.55 20.17 13 2.96 6.22 2.31 12.54-1.43 18.36zm288.15-18.29a28 28 0 0 0-12.51-16.21 25.15 25.15 0 0 0-12.16-4.08c-7.22-.32-14.47-.11-21.71-.07a3.28 3.28 0 0 0-2.85 2.42 20.29 20.29 0 0 0-.32 3.4v22.42 23.43c0 3.05 1.28 4.8 4.57 4.75h14.91a36.79 36.79 0 0 0 7.25-.55c10.23-2 17.59-7.66 21.81-17.22a25.65 25.65 0 0 0 1.01-18.29zm-6.44 10.25a18.65 18.65 0 0 1-5.06 10.79 21.73 21.73 0 0 1-12.17 7 17.26 17.26 0 0 1-3.5.49h-13.6c-1 0-1.27-.26-1.26-1.27v-19.66-19.51c0-1 .25-1.29 1.27-1.27 4.19.06 8.39-.09 12.58.05a22.69 22.69 0 0 1 14.13 5.2 20 20 0 0 1 7.61 18.18zm-152.55 20.51q-4-8.37-8.1-16.75l-6.41-13c-3-6.44-6.3-12.74-9.39-19.14a3.52 3.52 0 0 0-3.7-2.21c-1.58-.24-2.57.75-3.25 2.1-1.2 2.39-2.33 4.82-3.49 7.23q-4.83 10-9.65 19.93-5.28 10.84-10.58 21.67a3.81 3.81 0 0 0 1 4.74 3.91 3.91 0 0 0 4.85-.18A58 58 0 0 1 142.92 467c5.91-2.43 11.94-3.79 18.38-2.38a2.37 2.37 0 0 1 1.89 1.42l5.11 10.53a3.92 3.92 0 0 0 5 1.45 3.58 3.58 0 0 0 1.76-4.73zm-41.34-10.18l13.92-28.73 10.9 22.23c-8.92-.4-16.87 2.18-24.82 6.5zM397.2 473l-1.38-3.08q-6.56-13.2-12.95-26.48l-9.41-19.11a3.49 3.49 0 0 0-3.46-2.15 3.27 3.27 0 0 0-3.49 2.18l-3.61 7.48-9.52 19.67-10.57 21.67a3.83 3.83 0 0 0 1 4.63 3.89 3.89 0 0 0 5-.17A56.49 56.49 0 0 1 365.18 467c5.94-2.47 12-3.85 18.52-2.4a2.29 2.29 0 0 1 1.8 1.32l4.95 10.29a3.18 3.18 0 0 0 2.12 1.91 3.88 3.88 0 0 0 4.43-1.22 3.45 3.45 0 0 0 .2-3.9zm-41.15-9.83l13.94-28.75 10.9 22.23c-8.89-.43-16.89 2.12-24.84 6.48z" fill="#fff"/></svg>