<svg xmlns="http://www.w3.org/2000/svg" width="112" height="112" xmlns:v="https://vecta.io/nano"><path d="M56 0c30.928 0 56 25.072 56 56s-25.072 56-56 56S0 86.928 0 56 25.072 0 56 0z" fill="#d8dee8"/><path d="M56 56c8.468-.001 15.332-6.865 15.332-15.333s-6.865-15.332-15.333-15.333-15.333 6.864-15.333 15.332c0 4.067 1.615 7.967 4.491 10.843S51.933 56 56 56zm0 7.667C45.765 63.666 25.333 68.803 25.333 79v3.833c.007 2.114 1.719 3.826 3.833 3.833h53.667c2.114-.007 3.826-1.719 3.833-3.833V79c0-10.2-20.433-15.334-30.666-15.334z" fill="#f4f7fa"/></svg>